REM DIRINDEX 1\2,1\3,1\4,1\5
REM DIRNAME cjc005,folder01,folder02,folder03,folder04
TITLE ""
FILE "P1Q_t_0112-0121.mp3" MP3
  TRACK 01 AUDIO
    TITLE "3:cjc005_1237"
    INDEX 01 00:00:00
  TRACK 02 AUDIO
    TITLE "0:"
    INDEX 01 00:01:05
  TRACK 03 AUDIO
    TITLE "4:cjc005_1238"
    INDEX 01 00:01:32
  TRACK 04 AUDIO
    TITLE "0:"
    INDEX 01 00:02:34
  TRACK 05 AUDIO
    TITLE "5:cjc005_1239"
    INDEX 01 00:02:63
  TRACK 06 AUDIO
    TITLE "0:"
    INDEX 01 00:06:31
  TRACK 07 AUDIO
    TITLE "3:cjc005_1240"
    INDEX 01 00:07:05
  TRACK 08 AUDIO
    TITLE "0:"
    INDEX 01 00:08:36
  TRACK 09 AUDIO
    TITLE "4:cjc005_1241"
    INDEX 01 00:08:66
  TRACK 10 AUDIO
    TITLE "0:"
    INDEX 01 00:10:18
  TRACK 11 AUDIO
    TITLE "5:cjc005_1242"
    INDEX 01 00:10:41
  TRACK 12 AUDIO
    TITLE "0:"
    INDEX 01 00:16:08
  TRACK 13 AUDIO
    TITLE "3:cjc005_1243"
    INDEX 01 00:16:65
  TRACK 14 AUDIO
    TITLE "0:"
    INDEX 01 00:18:15
  TRACK 15 AUDIO
    TITLE "4:cjc005_1244"
    INDEX 01 00:18:37
  TRACK 16 AUDIO
    TITLE "0:"
    INDEX 01 00:19:58
  TRACK 17 AUDIO
    TITLE "5:cjc005_1245"
    INDEX 01 00:20:06
  TRACK 18 AUDIO
    TITLE "0:"
    INDEX 01 00:24:43
  TRACK 19 AUDIO
    TITLE "3:cjc005_1246"
    INDEX 01 00:25:19
  TRACK 20 AUDIO
    TITLE "0:"
    INDEX 01 00:26:52
  TRACK 21 AUDIO
    TITLE "4:cjc005_1247"
    INDEX 01 00:27:02
  TRACK 22 AUDIO
    TITLE "0:"
    INDEX 01 00:28:37
  TRACK 23 AUDIO
    TITLE "5:cjc005_1248"
    INDEX 01 00:28:62
  TRACK 24 AUDIO
    TITLE "0:"
    INDEX 01 00:32:29
  TRACK 25 AUDIO
    TITLE "3:cjc005_1249"
    INDEX 01 00:33:09
  TRACK 26 AUDIO
    TITLE "0:"
    INDEX 01 00:34:10
  TRACK 27 AUDIO
    TITLE "4:cjc005_1250"
    INDEX 01 00:34:40
  TRACK 28 AUDIO
    TITLE "0:"
    INDEX 01 00:35:47
  TRACK 29 AUDIO
    TITLE "5:cjc005_1251"
    INDEX 01 00:35:70
  TRACK 30 AUDIO
    TITLE "0:"
    INDEX 01 00:39:13
  TRACK 31 AUDIO
    TITLE "3:cjc005_1252"
    INDEX 01 00:39:62
  TRACK 32 AUDIO
    TITLE "0:"
    INDEX 01 00:40:73
  TRACK 33 AUDIO
    TITLE "4:cjc005_1253"
    INDEX 01 00:41:22
  TRACK 34 AUDIO
    TITLE "0:"
    INDEX 01 00:42:39
  TRACK 35 AUDIO
    TITLE "5:cjc005_1254"
    INDEX 01 00:42:63
  TRACK 36 AUDIO
    TITLE "0:"
    INDEX 01 00:47:09
  TRACK 37 AUDIO
    TITLE "3:cjc005_1255"
    INDEX 01 00:47:58
  TRACK 38 AUDIO
    TITLE "0:"
    INDEX 01 00:48:69
  TRACK 39 AUDIO
    TITLE "4:cjc005_1256"
    INDEX 01 00:49:18
  TRACK 40 AUDIO
    TITLE "0:"
    INDEX 01 00:50:31
  TRACK 41 AUDIO
    TITLE "5:cjc005_1257"
    INDEX 01 00:50:54
  TRACK 42 AUDIO
    TITLE "0:"
    INDEX 01 00:54:44
  TRACK 43 AUDIO
    TITLE "3:cjc005_1258"
    INDEX 01 00:55:16
  TRACK 44 AUDIO
    TITLE "0:"
    INDEX 01 00:56:49
  TRACK 45 AUDIO
    TITLE "4:cjc005_1259"
    INDEX 01 00:57:01
  TRACK 46 AUDIO
    TITLE "0:"
    INDEX 01 00:58:05
  TRACK 47 AUDIO
    TITLE "5:cjc005_1260"
    INDEX 01 00:58:32
  TRACK 48 AUDIO
    TITLE "0:"
    INDEX 01 01:03:41
  TRACK 49 AUDIO
    TITLE "3:cjc005_1261"
    INDEX 01 01:04:19
  TRACK 50 AUDIO
    TITLE "0:"
    INDEX 01 01:05:48
  TRACK 51 AUDIO
    TITLE "4:cjc005_1262"
    INDEX 01 01:05:69
  TRACK 52 AUDIO
    TITLE "0:"
    INDEX 01 01:07:04
  TRACK 53 AUDIO
    TITLE "5:cjc005_1263"
    INDEX 01 01:07:29
  TRACK 54 AUDIO
    TITLE "0:"
    INDEX 01 01:12:30
  TRACK 55 AUDIO
    TITLE "3:cjc005_1264"
    INDEX 01 01:13:06
  TRACK 56 AUDIO
    TITLE "0:"
    INDEX 01 01:14:06
  TRACK 57 AUDIO
    TITLE "4:cjc005_1265"
    INDEX 01 01:14:35
  TRACK 58 AUDIO
    TITLE "0:"
    INDEX 01 01:15:39
  TRACK 59 AUDIO
    TITLE "5:cjc005_1266"
    INDEX 01 01:15:60
  TRACK 60 AUDIO
    TITLE "0:"
    INDEX 01 01:21:35
